<svg width="98" height="21" viewBox="0 0 98 21" fill="none" xmlns="http://www.w3.org/2000/svg">
<path d="M3.49333 20.5806V18.9028C4.19741 20.0772 5.60557 20.9161 7.44702 20.9161C11.2382 20.9161 13.7296 17.8123 13.7296 13.6458C13.7296 9.56325 11.4819 6.45939 7.58242 6.45939C5.60557 6.45939 4.14325 7.35419 3.54749 8.33289V0.335553H0V20.5806H3.49333ZM10.1279 13.6738C10.1279 16.1904 8.66562 17.5885 6.82418 17.5885C5.00981 17.5885 3.49333 16.1625 3.49333 13.6738C3.49333 11.1571 5.00981 9.78695 6.82418 9.78695C8.66562 9.78695 10.1279 11.1571 10.1279 13.6738Z" fill="#2091F9"/>
<path d="M20.1829 20.5806V6.8229H16.5812V20.5806H20.1829ZM16.148 2.32091C16.148 3.55127 17.1499 4.58589 18.3685 4.58589C19.6142 4.58589 20.5891 3.55127 20.5891 2.32091C20.5891 1.03462 19.6142 0 18.3685 0C17.1499 0 16.148 1.03462 16.148 2.32091Z" fill="#2091F9"/>
<path d="M30.0235 17.6165C28.2633 17.6165 26.6385 16.2743 26.6385 13.7017C26.6385 11.1012 28.2633 9.78695 30.0235 9.78695C31.7837 9.78695 33.4085 11.1012 33.4085 13.7017C33.4085 16.3023 31.7837 17.6165 30.0235 17.6165ZM30.0235 6.40346C26.0428 6.40346 23.0369 9.4514 23.0369 13.7017C23.0369 17.9241 26.0428 21 30.0235 21C34.0043 21 37.0102 17.9241 37.0102 13.7017C37.0102 9.4514 34.0043 6.40346 30.0235 6.40346Z" fill="#2091F9"/>
<path d="M39.5333 18.2876C39.5333 19.6578 40.6165 20.7763 41.9434 20.7763C43.2974 20.7763 44.4077 19.6578 44.4077 18.2876C44.4077 16.8895 43.2974 15.771 41.9434 15.771C40.6165 15.771 39.5333 16.8895 39.5333 18.2876ZM39.5062 9.14381C39.5062 10.514 40.5894 11.6325 41.9163 11.6325C43.2703 11.6325 44.3806 10.514 44.3806 9.14381C44.3806 7.74567 43.2703 6.62716 41.9163 6.62716C40.5894 6.62716 39.5062 7.74567 39.5062 9.14381Z" fill="#2091F9"/>
<path d="M53.8508 9.84288C55.6381 9.84288 56.4776 11.0173 56.8026 12.1638L60.0251 11.0453C59.4564 8.72437 57.3983 6.40346 53.7696 6.40346C49.8971 6.40346 46.8642 9.4514 46.8642 13.7017C46.8642 17.9241 49.9513 21 53.8779 21C57.4254 21 59.5106 18.6511 60.1063 16.3582L56.938 15.2676C56.6401 16.3302 55.7193 17.5885 53.8779 17.5885C52.0365 17.5885 50.4658 16.1904 50.4658 13.7017C50.4658 11.213 52.0094 9.84288 53.8508 9.84288Z" fill="#2091F9"/>
<path d="M71.2631 20.5806H74.7023C74.6481 20.1052 74.5669 19.1545 74.5669 18.0919V6.8229H70.9652V14.8202C70.9652 16.4141 70.0445 17.5326 68.4468 17.5326C66.7678 17.5326 66.0096 16.3023 66.0096 14.7643V6.8229H62.4079V15.5193C62.4079 18.5113 64.2494 20.9441 67.4719 20.9441C68.8801 20.9441 70.4236 20.3848 71.1548 19.0985C71.1548 19.6578 71.2089 20.3009 71.2631 20.5806Z" fill="#2091F9"/>
<path d="M82.0122 20.5806V0.335553H78.4105V20.5806H82.0122Z" fill="#2091F9"/>
<path d="M88.4949 12.1358C88.5761 10.8775 89.6052 9.42344 91.4737 9.42344C93.5318 9.42344 94.3984 10.7656 94.4525 12.1358H88.4949ZM94.8046 15.715C94.3713 16.9454 93.4505 17.8123 91.7716 17.8123C89.9843 17.8123 88.4949 16.498 88.4137 14.6804H97.9458C97.9458 14.6245 98 14.0652 98 13.534C98 9.11585 95.5357 6.40346 91.4195 6.40346C88.0075 6.40346 84.8662 9.25566 84.8662 13.6458C84.8662 18.2876 88.0887 21 91.7445 21C95.0212 21 97.1334 19.0146 97.8104 16.6378L94.8046 15.715Z" fill="#2091F9"/>
</svg>
